<svg aria-hidden="true" style="position: absolute; width: 0; height: 0; overflow: hidden;" version="1.1" xmlns="http://www.w3.org/2000/svg" xmlns:xlink="http://www.w3.org/1999/xlink">
<defs>
<symbol id="icon-check" viewBox="0 0 32 32">
<path stroke-width="2.6667" stroke-miterlimit="4" stroke-linecap="round" stroke-linejoin="round" d="M28.444 5.333l-15.889 17.778-7.222-8.081"></path>
</symbol>
<symbol id="icon-close" viewBox="0 0 32 32">
<path stroke-width="2" stroke-miterlimit="4" stroke-linecap="round" stroke-linejoin="round" d="M24 8l-16 16"></path>
<path stroke-width="2" stroke-miterlimit="4" stroke-linecap="round" stroke-linejoin="round" d="M8 8l16 16"></path>
</symbol>
<symbol id="icon-delete" viewBox="0 0 32 32">
<path stroke-width="2.6667" stroke-miterlimit="4" stroke-linecap="round" stroke-linejoin="round" d="M21.333 8v-1.067c0-1.493 0-2.24-0.291-2.811-0.256-0.502-0.664-0.91-1.165-1.165-0.57-0.291-1.317-0.291-2.811-0.291h-2.133c-1.493 0-2.24 0-2.811 0.291-0.502 0.256-0.91 0.664-1.165 1.165-0.291 0.57-0.291 1.317-0.291 2.811v1.067M13.333 15.333v6.667M18.667 15.333v6.667M4 8h24M25.333 8v14.933c0 2.24 0 3.36-0.436 4.216-0.383 0.753-0.995 1.365-1.748 1.748-0.856 0.436-1.976 0.436-4.216 0.436h-5.867c-2.24 0-3.36 0-4.216-0.436-0.753-0.383-1.365-0.995-1.748-1.748-0.436-0.856-0.436-1.976-0.436-4.216v-14.933"></path>
</symbol>
<symbol id="icon-facebook" viewBox="0 0 32 32">
<path d="M19.52 4.64c0.24 0 0.48 0 0.96 0v3.6c-0.24 0-0.72 0-1.2 0s-0.96 0-1.2 0.24c-0.24 0.24-0.24 0.48-0.24 1.040 0 0.48 0 0.8 0 1.28h2.64v3.040h-2.64v13.2h-4.080v-13.28h-2.16v-3.040h2.16v-1.040c0-1.76 0.24-3.040 0.72-3.6 0.72-1.040 2.16-1.52 4.32-1.52 0.24 0.080 0.48 0.080 0.72 0.080z"></path>
</symbol>
<symbol id="icon-instagram" viewBox="0 0 32 32">
<path d="M28.717 10.756c-0.016-1.074-0.215-2.14-0.596-3.145-0.667-1.716-2.024-3.073-3.743-3.737-0.994-0.373-2.044-0.573-3.108-0.596-1.368-0.061-1.801-0.078-5.273-0.078s-3.917 0-5.274 0.078c-1.062 0.023-2.112 0.223-3.106 0.596-1.719 0.664-3.078 2.021-3.743 3.737-0.374 0.992-0.576 2.041-0.596 3.101-0.061 1.367-0.080 1.8-0.080 5.265s0 3.909 0.080 5.265c0.021 1.062 0.222 2.109 0.596 3.104 0.667 1.714 2.024 3.071 3.744 3.735 0.989 0.386 2.040 0.605 3.106 0.639 1.369 0.061 1.803 0.079 5.274 0.079s3.916 0 5.274-0.079c1.062-0.021 2.113-0.221 3.108-0.595 1.719-0.666 3.076-2.022 3.743-3.737 0.374-0.994 0.574-2.041 0.596-3.104 0.061-1.365 0.080-1.798 0.080-5.265-0.003-3.466-0.003-3.906-0.082-5.264zM15.99 22.531c-3.631 0-6.572-2.936-6.572-6.561s2.941-6.561 6.572-6.561c3.628 0 6.572 2.936 6.572 6.561s-2.944 6.561-6.572 6.561zM22.823 10.696c-0.849 0-1.532-0.684-1.532-1.53s0.684-1.53 1.532-1.53c0.846 0 1.531 0.684 1.531 1.53s-0.685 1.53-1.531 1.53z"></path>
<path d="M15.992 19.976c2.211 0 4.004-1.793 4.004-4.004s-1.793-4.004-4.004-4.004c-2.211 0-4.004 1.793-4.004 4.004s1.793 4.004 4.004 4.004z"></path>
</symbol>
<symbol id="icon-logo" viewBox="0 0 32 32">
<path d="M22.13 0h-12.26l-9.87 9.87v12.26l9.87 9.87h12.26l9.87-9.87v-12.26l-9.87-9.87zM11.566 22.284l-6.323-6.323 6.323-6.323c2.39-2.39 6.323-2.39 8.713 0l6.323 6.323-6.323 6.323c-2.39 2.39-6.246 2.39-8.713 0z"></path>
</symbol>
<symbol id="icon-pen" viewBox="0 0 32 32">
<path stroke-width="2.88" stroke-miterlimit="4" stroke-linecap="round" stroke-linejoin="round" d="M22.667 4c0.35-0.35 0.766-0.628 1.224-0.817s0.948-0.287 1.443-0.287c0.495 0 0.986 0.098 1.443 0.287s0.873 0.467 1.224 0.817c0.35 0.35 0.628 0.766 0.817 1.223s0.287 0.948 0.287 1.443-0.098 0.986-0.287 1.443c-0.19 0.458-0.467 0.873-0.817 1.223l-18 18-7.333 2 2-7.333 18-18z"></path>
</symbol>
<symbol id="icon-plus" viewBox="0 0 32 32">
<path stroke-width="1.9862" stroke-miterlimit="4" stroke-linecap="round" stroke-linejoin="round" d="M16 6.989v18.023"></path>
<path stroke-width="1.9862" stroke-miterlimit="4" stroke-linecap="round" stroke-linejoin="round" d="M6.988 16h18.023"></path>
</symbol>
<symbol id="icon-youtube" viewBox="0 0 32 32">
<path d="M24.24 6c-1.36-0.080-4.16-0.16-8.4-0.16h-0.56c-4.080 0-6.8 0.080-8.16 0.24-1.84 0.16-3.12 0.64-3.84 1.28-0.64 0.56-1.12 1.6-1.28 2.96-0.080 0.88-0.16 2.72-0.16 5.52v0.4c0 2.64 0.080 4.48 0.24 5.36 0.24 1.28 0.64 2.24 1.44 2.8 0.8 0.64 2.16 1.040 4.080 1.2 1.36 0.080 4.16 0.16 8.4 0.16h0.56c4.080 0 6.8-0.080 8.16-0.24 1.84-0.16 3.12-0.64 3.84-1.28 0.64-0.56 1.12-1.6 1.28-2.96 0.080-0.88 0.16-2.72 0.16-5.52v-0.4c0-2.64-0.080-4.48-0.24-5.36-0.24-1.28-0.64-2.24-1.44-2.8-0.8-0.64-2.16-1.040-4.080-1.2zM21.12 15.84l-8.8 5.28v-10.56l8.8 5.28z"></path>
</symbol>

<symbol id="icon-user" viewBox="0 0 32 32">
<path d="M21.278 15.314c0 2.802-2.272 5.074-5.074 5.074s-5.074-2.272-5.074-5.074c0-2.802 2.272-5.074 5.074-5.074s5.074 2.272 5.074 5.074z"></path>
<path d="M28.48 32.54c0-1.639-0.323-3.262-0.95-4.776s-1.546-2.89-2.705-4.049c-1.159-1.159-2.535-2.078-4.049-2.705s-3.137-0.95-4.776-0.95-3.262 0.323-4.776 0.95c-1.514 0.627-2.89 1.546-4.049 2.705s-2.078 2.535-2.705 4.049c-0.627 1.514-0.95 3.137-0.95 4.776h24.96z"></path>
</symbol>
</defs>

<symbol id="icon-placeholder-ing" viewBox="0 0 32 32">
<path d="M12.295 31.976c-0.121 0-0.238-0.048-0.324-0.134s-0.134-0.202-0.134-0.323 0.048-0.237 0.134-0.322c0.086-0.086 0.202-0.134 0.324-0.134h5.211v-9.954l-11.169-13.791c-0.046-0.069-0.074-0.149-0.080-0.232s0.010-0.166 0.046-0.241c0.036-0.075 0.091-0.139 0.159-0.187s0.148-0.077 0.231-0.084h14.848l2.622-6.291c0.037-0.082 0.096-0.152 0.171-0.202s0.163-0.078 0.253-0.081h0.096l6.469 1.364c0.059 0.012 0.115 0.035 0.165 0.069s0.092 0.077 0.124 0.128c0.033 0.050 0.056 0.105 0.068 0.164s0.012 0.119-0 0.177c-0.025 0.102-0.083 0.193-0.165 0.258s-0.183 0.103-0.288 0.107h-0.092l-6.098-1.287-2.333 5.589h6.725c0.086 0.002 0.17 0.028 0.243 0.073s0.132 0.11 0.172 0.186c0.034 0.078 0.046 0.163 0.036 0.248s-0.043 0.165-0.094 0.232l-11.193 13.82v9.935h5.211c0.072-0.024 0.149-0.030 0.225-0.018s0.147 0.041 0.208 0.086c0.062 0.044 0.112 0.103 0.147 0.171s0.053 0.142 0.053 0.218c0 0.076-0.018 0.151-0.053 0.218s-0.085 0.126-0.147 0.171c-0.062 0.044-0.133 0.074-0.208 0.085s-0.152 0.006-0.225-0.018h-11.338zM17.973 20.259l7.231-8.917h-4.638l-2.179 5.22c-0.038 0.081-0.097 0.15-0.172 0.199s-0.162 0.077-0.252 0.079c-0.060 0.001-0.119-0.011-0.174-0.034-0.109-0.050-0.194-0.139-0.241-0.249s-0.050-0.233-0.010-0.346l3.63-8.687h-13.498l2.367 2.92h7.511l-0.39 0.912h-6.402l7.216 8.903zM22.153 7.52l-1.215 2.91h4.999l2.367-2.924-6.151 0.014z"></path>
<path d="M5.706 12.271c-0.442-0.001-0.883-0.053-1.313-0.155-1.361-0.326-2.556-1.145-3.358-2.304s-1.157-2.574-0.997-3.98c0.161-1.405 0.826-2.702 1.869-3.644s2.392-1.464 3.79-1.467c0.442 0.001 0.883 0.053 1.313 0.155 0.895 0.215 1.725 0.646 2.42 1.255s1.234 1.38 1.572 2.245l0.067 0.165h-0.958l-0.034-0.068c-0.134-0.281-0.295-0.549-0.479-0.8l-0.182-0.257-2.013 2.022-0.081-0.116c-0.124-0.174-0.274-0.326-0.446-0.451l-0.115-0.082 2.013-2.022-0.249-0.184c-0.796-0.599-1.759-0.926-2.75-0.936h-0.311l0.436 2.846h-0.211c-0.111 0-0.221 0.010-0.331 0.029-0.076 0.014-0.152 0.034-0.225 0.058l-0.134 0.039-0.436-2.831-0.292 0.092c-0.903 0.285-1.702 0.835-2.295 1.581l-0.196 0.247 2.482 1.416-0.091 0.112c-0.135 0.165-0.242 0.352-0.316 0.553l-0.048 0.131-2.472-1.421-0.11 0.291c-0.071 0.195-0.132 0.394-0.182 0.596-0.182 0.786-0.168 1.606 0.038 2.385l0.081 0.301 2.568-1.183 0.038 0.136c0.058 0.207 0.148 0.404 0.268 0.582l0.077 0.121-2.592 1.173 0.172 0.262c0.491 0.757 1.181 1.36 1.993 1.741l0.283 0.126 0.762-2.773 0.129 0.063c0.192 0.091 0.398 0.15 0.609 0.175h0.139l-0.762 2.768 0.307 0.034c0.18 0.023 0.36 0.035 0.541 0.034 0.305 0.003 0.61-0.023 0.91-0.078h0.067l0.637 0.795-0.177 0.048c-0.466 0.116-0.944 0.174-1.423 0.175z"></path>
</symbol>
</svg>



