<!-- Generated by IcoMoon.io -->
<svg version="1.1" xmlns="http://www.w3.org/2000/svg" width="35" height="32" viewBox="0 0 35 32" fill="rgba(217, 217, 217, 0.14">

 <filter id="blurMe">
    <feGaussianBlur stdDeviation="5" />
  </filter>

<path d="M0.013 6.224c0-1.432 0.042-4.010 0.482-4.847 0.749-1.426 2.743-1.339 4.351-1.263l26.718 1.252c0.161 0.008 0.322 0.030 0.479 0.066l0.095 0.022c1.535 0.355 2.713 1.587 2.998 3.136 0.2 1.087 0.301 2.187 0.301 3.292v14.753c0 1.175-0.406 2.318-1.148 3.229-0.666 0.817-1.663 1.29-2.716 1.29h-6.092c-0.148 0-0.323 0.026-0.509 0.067-1.117 0.251-1.992 1.074-2.674 1.994-0.151 0.204-0.318 0.396-0.489 0.585-0.788 0.87-1.841 2.201-4.139 2.201-0.764 0-1.47-0.217-2.043-0.489-0.91-0.433-1.557-1.241-2.153-2.053-1.040-1.418-2.777-2.129-4.532-2.025-1.868 0.11-4.077 0.103-5.684-0.279-2.596-0.617-3.374-3.984-3.245-5.508v-15.422z" filter="url(#blurMe)" ></path>
</svg>
