<svg width="14" height="14" viewBox="0 0 14 14" fill="none" xmlns="http://www.w3.org/2000/svg">
<g id="edit-01" clip-path="url(#clip0_198_1316)">
<path id="Icon" d="M1.62608 11.0323C1.67202 10.6188 1.695 10.412 1.75755 10.2188C1.81306 10.0474 1.89147 9.8842 1.99068 9.73376C2.1025 9.56419 2.24959 9.4171 2.54377 9.12292L9.91672 1.74998C10.5611 1.10565 11.6057 1.10565 12.2501 1.74998V1.74998C12.8944 2.39431 12.8944 3.43898 12.2501 4.08331L4.8771 11.4563C4.58292 11.7504 4.43583 11.8975 4.26626 12.0093C4.11582 12.1085 3.95266 12.187 3.78122 12.2425C3.58798 12.305 3.38123 12.328 2.96774 12.3739L1.45837 12.5416L1.62608 11.0323Z" stroke="#F3F3F3" stroke-width="1.3" stroke-linecap="round" stroke-linejoin="round"/>
</g>
<defs>
<clipPath id="clip0_198_1316">
<rect width="14" height="14" fill="white"/>
</clipPath>
</defs>
</svg>
