<!-- Generated by IcoMoon.io -->
<svg version="1.1" xmlns="http://www.w3.org/2000/svg" width="32" height="32" viewBox="0 0 32 32">
<title>user</title>
<path d="M21.278 15.314c0 2.802-2.272 5.074-5.074 5.074s-5.074-2.272-5.074-5.074c0-2.802 2.272-5.074 5.074-5.074s5.074 2.272 5.074 5.074z"></path>
<path d="M28.48 32.54c0-1.639-0.323-3.262-0.95-4.776s-1.546-2.89-2.705-4.049c-1.159-1.159-2.535-2.078-4.049-2.705s-3.137-0.95-4.776-0.95-3.262 0.323-4.776 0.95c-1.514 0.627-2.89 1.546-4.049 2.705s-2.078 2.535-2.705 4.049c-0.627 1.514-0.95 3.137-0.95 4.776h24.96z"></path>
</svg>
